<svg version="1" xmlns="http://www.w3.org/2000/svg" width="682.667" height="682.667" viewBox="0 0 512.000000 512.000000"><path d="M0 256v256h512V0H0v256zM299.1 38.5c32.4 5.7 74 27.8 76.9 40.9.9 4 .8 4-6.1 10.9-3.8 3.8-8 8.3-9.4 10.1-2 2.6-20 48.4-53.6 136.1-16.9 44.2-39 101.8-44.9 117-2.2 5.5-10.9 28.2-19.5 50.4-8.5 22.2-16.6 42.4-18 44.7-6.5 11.1-20.3 20.2-34.1 22.5-25.4 4.2-50.7-14.7-54.2-40.6-1.8-13.2-1.2-15.1 26.8-87.5 7.4-19.2 15.4-39.9 26.4-68.8 3.5-9.2 9.2-23.9 12.6-32.7 3.4-8.8 9-23.4 12.5-32.5 3.5-9.1 13.5-35.2 22.3-58 8.8-22.8 19.7-51.2 24.2-63l8.2-21.4-.4-12.5-.3-12.5 3.4-2.3c2.8-1.9 4.7-2.3 11-2.3 4.2 0 11.4.7 16.2 1.5z"/><path d="M289.1 48.7c-2.3 1.8-2.3 2-.8 5 4.9 9.5 36.4 23.6 55.8 25 12.3.9 15-2.2 8.2-9.1-9.7-9.7-36.8-21-53.8-22.3-5.9-.5-7.4-.3-9.4 1.4zm11.4 153.4c-15.5 15.7-25.2 21-47 26-4.9 1.1-11.4 2.9-14.2 4-6.9 2.4-17.8 10.5-24.6 18-4.7 5.2-6.1 7.7-11 20.7-12.1 31.9-26.6 69.8-45.3 117.7l-9.8 25v9.5c-.1 8.2.2 10.2 2.5 15.1 3.2 6.8 11 14.8 17.5 17.9 4 2 6.5 2.4 13.9 2.4 7.9.1 9.8-.3 15.3-2.8 6.7-3.1 13.7-9.8 16.5-15.8.8-1.8 10.8-27.6 22.2-57.3 11.4-29.7 22.2-57.8 24-62.5 1.8-4.7 10.7-27.9 19.8-51.5 9.1-23.7 19.1-49.5 22.2-57.4 3-7.9 5.4-14.8 5.3-15.2-.2-.5-3.4 2.3-7.3 6.2zm-46.6 83.3c.7.8 1.1 2.7.9 4.3-.3 2.5-.7 2.8-3.8 2.8-3.3 0-3.5-.2-3.2-3 .2-2.3.1-2.7-.7-1.5-.6.8-1.1 1.1-1.1.6 0-1.6 3.2-4.6 5-4.6 1 0 2.3.6 2.9 1.4zm-61.3 54.3c-1.3 2.4-1.5 2.5-1.6.7 0-1.1.5-2.5 1.2-3.2 1.9-1.9 2.1-.6.4 2.5zm26.6 43.3c.5 0 .7-.8.4-1.8-.7-1.6-.6-1.6 1 0 1.9 1.9 1.1 3.8-1.6 3.8-2.4 0-3.4-1.6-2.4-3.8.7-1.6.7-1.6 1.1 0 .3 1 .9 1.8 1.5 1.8z"/><path d="M249 285.4c0 .2.9.6 2 .9 1.1.3 1.8.1 1.4-.4-.5-.9-3.4-1.3-3.4-.5zm3.6 4.1c-.3.8-.1 1.5.4 1.5.6 0 1-.7 1-1.5s-.2-1.5-.4-1.5-.6.7-1 1.5zm-4.1 1.5c-.3.5-.1 1 .4 1 .6 0 1.1-.5 1.1-1 0-.6-.2-1-.4-1-.3 0-.8.4-1.1 1z"/></svg>